<svg xmlns="http://www.w3.org/2000/svg" xmlns:xlink="http://www.w3.org/1999/xlink" width="24" height="24" viewBox="0 0 24 24">
    <defs>
        <path id="goxdrdqz4a" d="M17.71 9.23c.286-.298.761-.308 1.06-.02.271.26.304.676.092.974l-.071.086-6.25 6.5c-.269.279-.699.304-.997.076l-.085-.076-6.25-6.5c-.287-.299-.277-.774.021-1.06.272-.262.689-.278.978-.054l.083.074L12 15.168l5.71-5.938z"/>
    </defs>
    <g fill="none" fill-rule="evenodd">
        <g>
            <g>
                <g>
                    <g>
                        <g transform="translate(-1156 -768) translate(0 456) translate(260 228) translate(0 72) translate(896 12)">
                            <mask id="j4qjfcmotb" fill="#fff">
                                <use xlink:href="#goxdrdqz4a"/>
                            </mask>
                            <use fill="#000" fill-rule="nonzero" xlink:href="#goxdrdqz4a"/>
                            <path fill="#000" fill-rule="nonzero" d="M0 0H24V24H0z" mask="url(#j4qjfcmotb)"/>
                        </g>
                    </g>
                </g>
            </g>
        </g>
    </g>
</svg>
