<?xml version="1.0" encoding="utf-8"?>
<!-- Generator: Adobe Illustrator 16.0.0, SVG Export Plug-In . SVG Version: 6.00 Build 0)  -->
<!DOCTYPE svg PUBLIC "-//W3C//DTD SVG 1.1//EN" "http://www.w3.org/Graphics/SVG/1.1/DTD/svg11.dtd">
<svg version="1.1" id="Layer_1" xmlns="http://www.w3.org/2000/svg" xmlns:xlink="http://www.w3.org/1999/xlink" x="0px" y="0px"
	 width="24px" height="24px" viewBox="0 0 24 24" enable-background="new 0 0 24 24" xml:space="preserve">
<g>
	<g>
		<g>
			<g>
				<g>
					<g transform="translate(-1156 -768) translate(0 456) translate(260 228) translate(0 72) translate(896 12)">
						<g>
							<path id="goxdrdqz4a_1_" d="M9.23,6.29C8.932,6.004,8.922,5.529,9.21,5.23c0.26-0.271,0.676-0.305,0.974-0.092l0.086,0.07
								l6.5,6.25c0.279,0.269,0.305,0.699,0.076,0.997l-0.076,0.085l-6.5,6.25c-0.299,0.287-0.774,0.277-1.06-0.021
								c-0.262-0.271-0.278-0.688-0.054-0.978l0.074-0.083L15.168,12L9.23,6.29z"/>
						</g>
						<defs>
							<filter id="Adobe_OpacityMaskFilter" filterUnits="userSpaceOnUse" x="0" y="0" width="24" height="24">
								<feColorMatrix  type="matrix" values="1 0 0 0 0  0 1 0 0 0  0 0 1 0 0  0 0 0 1 0"/>
							</filter>
						</defs>
						<mask maskUnits="userSpaceOnUse" x="0" y="0" width="24" height="24" id="j4qjfcmotb">
							<g filter="url(#Adobe_OpacityMaskFilter)">
								<path id="goxdrdqz4a" fill="#FFFFFF" d="M9.23,6.29C8.932,6.004,8.922,5.529,9.21,5.23c0.26-0.271,0.676-0.305,0.974-0.092
									l0.086,0.07l6.5,6.25c0.279,0.269,0.305,0.699,0.076,0.997l-0.076,0.085l-6.5,6.25c-0.299,0.287-0.774,0.277-1.06-0.021
									c-0.262-0.271-0.278-0.688-0.054-0.978l0.074-0.083L15.168,12L9.23,6.29z"/>
							</g>
						</mask>
						<path mask="url(#j4qjfcmotb)" d="M0,24V0h24v24H0z"/>
					</g>
				</g>
			</g>
		</g>
	</g>
</g>
</svg>
